<?xml version="1.0" encoding="UTF-8" standalone="no"?>
<!DOCTYPE svg PUBLIC "-//W3C//DTD SVG 1.1//EN" "http://www.w3.org/Graphics/SVG/1.1/DTD/svg11.dtd">
<svg version="1.1" xmlns="http://www.w3.org/2000/svg" xmlns:xlink="http://www.w3.org/1999/xlink" preserveAspectRatio="xMidYMid meet" viewBox="0 0 640 640" width="640" height="640"><defs><path d="M593.2 302.47C593.2 457.24 467.55 582.89 312.78 582.89C158.02 582.89 32.37 457.24 32.37 302.47C32.37 147.71 158.02 22.06 312.78 22.06C467.55 22.06 593.2 147.71 593.2 302.47Z" id="aG6SLqDOI"></path><clipPath id="clipa4pckYuLS"><use xlink:href="#aG6SLqDOI" opacity="1"></use></clipPath><path d="M203.26 127.74L203.36 127.75L203.46 127.77L203.55 127.79L203.65 127.81L203.74 127.84L203.83 127.87L203.93 127.9L204.01 127.94L204.1 127.98L204.19 128.03L204.27 128.08L204.35 128.13L204.43 128.18L204.51 128.24L204.58 128.3L204.66 128.37L204.73 128.44L204.8 128.51L204.86 128.58L204.92 128.66L204.98 128.73L205.04 128.82L205.1 128.9L205.15 128.98L205.2 129.07L205.24 129.16L205.28 129.25L205.32 129.35L205.36 129.44L205.39 129.54L205.42 129.64L205.44 129.74L205.47 129.85L205.48 129.95L205.5 130.05L205.51 130.16L205.51 130.27L205.52 130.38L205.52 183.3L254.66 183.3L254.76 183.3L254.86 183.31L254.96 183.32L255.05 183.33L255.15 183.35L255.25 183.38L255.34 183.4L255.43 183.43L255.52 183.47L255.61 183.51L255.7 183.55L255.79 183.59L255.87 183.64L255.95 183.7L256.03 183.75L256.11 183.81L256.18 183.87L256.26 183.94L256.33 184L256.39 184.07L256.46 184.15L256.52 184.22L256.58 184.3L256.64 184.38L256.69 184.47L256.75 184.55L256.79 184.64L256.84 184.73L256.88 184.82L256.92 184.92L256.96 185.01L256.99 185.11L257.02 185.21L257.04 185.31L257.06 185.41L257.08 185.52L257.1 185.62L257.11 185.73L257.11 185.84L257.11 185.95L257.11 228.28L257.11 228.39L257.11 228.5L257.1 228.61L257.08 228.71L257.06 228.81L257.04 228.92L257.02 229.02L256.99 229.12L256.96 229.22L256.92 229.31L256.88 229.41L256.84 229.5L256.79 229.59L256.75 229.68L256.69 229.76L256.64 229.84L256.58 229.92L256.52 230L256.46 230.08L256.39 230.15L256.33 230.22L256.26 230.29L256.18 230.36L256.11 230.42L256.03 230.48L255.95 230.53L255.87 230.58L255.79 230.63L255.7 230.68L255.61 230.72L255.52 230.76L255.43 230.79L255.34 230.82L255.25 230.85L255.15 230.87L255.05 230.89L254.96 230.91L254.86 230.92L254.76 230.93L254.66 230.93L205.52 230.93L205.52 283.85L205.51 283.96L205.51 284.07L205.5 284.17L205.48 284.28L205.47 284.38L205.44 284.48L205.42 284.59L205.39 284.68L205.36 284.78L205.32 284.88L205.28 284.97L205.24 285.06L205.2 285.15L205.15 285.24L205.1 285.33L205.04 285.41L204.98 285.49L204.92 285.57L204.86 285.65L204.8 285.72L204.73 285.79L204.66 285.86L204.58 285.92L204.51 285.98L204.43 286.04L204.35 286.1L204.27 286.15L204.19 286.2L204.1 286.24L204.01 286.29L203.93 286.33L203.83 286.36L203.74 286.39L203.65 286.42L203.55 286.44L203.46 286.46L203.36 286.48L203.26 286.49L203.16 286.49L203.06 286.49L163.75 286.49L163.64 286.49L163.54 286.49L163.45 286.48L163.35 286.46L163.25 286.44L163.16 286.42L163.06 286.39L162.97 286.36L162.88 286.33L162.79 286.29L162.7 286.24L162.62 286.2L162.53 286.15L162.45 286.1L162.37 286.04L162.29 285.98L162.22 285.92L162.15 285.86L162.08 285.79L162.01 285.72L161.94 285.65L161.88 285.57L161.82 285.49L161.76 285.41L161.71 285.33L161.66 285.24L161.61 285.15L161.56 285.06L161.52 284.97L161.48 284.88L161.45 284.78L161.41 284.68L161.39 284.59L161.36 284.48L161.34 284.38L161.32 284.28L161.31 284.17L161.3 284.07L161.29 283.96L161.29 283.85L161.29 230.93L112.15 230.93L112.05 230.93L111.95 230.92L111.85 230.91L111.75 230.89L111.65 230.87L111.56 230.85L111.46 230.82L111.37 230.79L111.28 230.76L111.19 230.72L111.1 230.68L111.02 230.63L110.94 230.58L110.85 230.53L110.77 230.48L110.7 230.42L110.62 230.36L110.55 230.29L110.48 230.22L110.41 230.15L110.35 230.08L110.28 230L110.22 229.92L110.17 229.84L110.11 229.76L110.06 229.68L110.01 229.59L109.97 229.5L109.92 229.41L109.88 229.31L109.85 229.22L109.82 229.12L109.79 229.02L109.76 228.92L109.74 228.81L109.72 228.71L109.71 228.61L109.7 228.5L109.69 228.39L109.69 228.28L109.69 185.95L109.69 185.84L109.7 185.73L109.71 185.62L109.72 185.52L109.74 185.41L109.76 185.31L109.79 185.21L109.82 185.11L109.85 185.01L109.88 184.92L109.92 184.82L109.97 184.73L110.01 184.64L110.06 184.55L110.11 184.47L110.17 184.38L110.22 184.3L110.28 184.22L110.35 184.15L110.41 184.07L110.48 184L110.55 183.94L110.62 183.87L110.7 183.81L110.77 183.75L110.85 183.7L110.94 183.64L111.02 183.59L111.1 183.55L111.19 183.51L111.28 183.47L111.37 183.43L111.46 183.4L111.56 183.38L111.65 183.35L111.75 183.33L111.85 183.32L111.95 183.31L112.05 183.3L112.15 183.3L161.29 183.3L161.29 130.38L161.29 130.27L161.3 130.16L161.31 130.05L161.32 129.95L161.34 129.85L161.36 129.74L161.39 129.64L161.41 129.54L161.45 129.44L161.48 129.35L161.52 129.25L161.56 129.16L161.61 129.07L161.66 128.98L161.71 128.9L161.76 128.82L161.82 128.73L161.88 128.66L161.94 128.58L162.01 128.51L162.08 128.44L162.15 128.37L162.22 128.3L162.29 128.24L162.37 128.18L162.45 128.13L162.53 128.08L162.62 128.03L162.7 127.98L162.79 127.94L162.88 127.9L162.97 127.87L163.06 127.84L163.16 127.81L163.25 127.79L163.35 127.77L163.45 127.75L163.54 127.74L163.64 127.73L163.75 127.73L203.06 127.73L203.16 127.73L203.26 127.74Z" id="aw3CyWZoV"></path><path d="M206.77 405.05L254.02 453.62L227.56 480.82L180.31 432.25L133.06 480.82L106.6 453.62L153.85 405.05L106.6 356.48L133.06 329.28L180.31 377.85L227.56 329.28L254.02 356.48L206.77 405.05Z" id="b1Q070T1ZO"></path><path d="" id="j5iHXKlw7J"></path><path d="M520 406.08L362.27 406.08" id="d4dkhnhHmy"></path><path d="M521.03 204.02L363.3 204.02" id="a4wNSpt6QE"></path><path d="M465.88 150.15C465.88 164.24 454.79 175.67 441.13 175.67C427.48 175.67 416.39 164.24 416.39 150.15C416.39 136.07 427.48 124.64 441.13 124.64C454.79 124.64 465.88 136.07 465.88 150.15Z" id="a4CJOaYqSE"></path><path d="M465.88 260.98C465.88 275.06 454.79 286.49 441.13 286.49C427.48 286.49 416.39 275.06 416.39 260.98C416.39 246.9 427.48 235.46 441.13 235.46C454.79 235.46 465.88 246.9 465.88 260.98Z" id="aKRHprSb4"></path><path d="M320 574.64L320 31.34" id="d9sNWeV5EZ"></path><path d="M583.92 307.63L41.65 310.72" id="a4AkHG6QN"></path></defs><g><g><g><g><filter id="shadow4678654" x="23.37" y="13.06" width="579.82" height="579.82" filterUnits="userSpaceOnUse" primitiveUnits="userSpaceOnUse"><feFlood></feFlood><feComposite in2="SourceAlpha" operator="in"></feComposite><feGaussianBlur stdDeviation="1"></feGaussianBlur><feOffset dx="1" dy="1" result="afterOffset"></feOffset><feFlood flood-color="#000000" flood-opacity="0.5"></feFlood><feComposite in2="afterOffset" operator="in"></feComposite><feMorphology operator="dilate" radius="1"></feMorphology><feComposite in2="SourceAlpha" operator="out"></feComposite></filter><path d="M593.2 302.47C593.2 457.24 467.55 582.89 312.78 582.89C158.02 582.89 32.37 457.24 32.37 302.47C32.37 147.71 158.02 22.06 312.78 22.06C467.55 22.06 593.2 147.71 593.2 302.47Z" id="a12WrsTP5j" fill="white" fill-opacity="1" filter="url(#shadow4678654)"></path></g><use xlink:href="#aG6SLqDOI" opacity="1" fill="#ffffff" fill-opacity="1"></use><g clip-path="url(#clipa4pckYuLS)"><use xlink:href="#aG6SLqDOI" opacity="1" fill-opacity="0" stroke="#070808" stroke-width="30" stroke-opacity="1"></use></g><g><filter id="shadow2317630" x="23.37" y="13.06" width="579.82" height="579.82" filterUnits="userSpaceOnUse" primitiveUnits="userSpaceOnUse"><feFlood></feFlood><feComposite in2="SourceAlpha" operator="out"></feComposite><feGaussianBlur stdDeviation="1"></feGaussianBlur><feOffset dx="1" dy="1" result="afterOffset"></feOffset><feFlood flood-color="#ffffff" flood-opacity="0.8"></feFlood><feComposite in2="afterOffset" operator="in"></feComposite><feMorphology operator="dilate" radius="1"></feMorphology><feComposite in2="SourceAlpha" operator="in"></feComposite></filter><path d="M593.2 302.47C593.2 457.24 467.55 582.89 312.78 582.89C158.02 582.89 32.37 457.24 32.37 302.47C32.37 147.71 158.02 22.06 312.78 22.06C467.55 22.06 593.2 147.71 593.2 302.47Z" id="keqVsrx9F" fill="white" fill-opacity="1" filter="url(#shadow2317630)"></path></g></g><g><use xlink:href="#aw3CyWZoV" opacity="1" fill="#030105" fill-opacity="1"></use><g><use xlink:href="#aw3CyWZoV" opacity="1" fill-opacity="0" stroke="#010303" stroke-width="1" stroke-opacity="1"></use></g></g><g><use xlink:href="#b1Q070T1ZO" opacity="1" fill="#060109" fill-opacity="1"></use><g><use xlink:href="#b1Q070T1ZO" opacity="1" fill-opacity="0" stroke="#020909" stroke-width="1" stroke-opacity="1"></use></g></g><g><g><use xlink:href="#j5iHXKlw7J" opacity="1" fill-opacity="0" stroke="#099584" stroke-width="1" stroke-opacity="1"></use></g></g><g><use xlink:href="#d4dkhnhHmy" opacity="1" fill="#592084" fill-opacity="1"></use><g><use xlink:href="#d4dkhnhHmy" opacity="1" fill-opacity="0" stroke="#030203" stroke-width="33" stroke-opacity="1"></use></g></g><g><use xlink:href="#a4wNSpt6QE" opacity="1" fill="#000000" fill-opacity="1"></use><g><use xlink:href="#a4wNSpt6QE" opacity="1" fill-opacity="0" stroke="#000202" stroke-width="38" stroke-opacity="1"></use></g></g><g><use xlink:href="#a4CJOaYqSE" opacity="1" fill="#000000" fill-opacity="1"></use></g><g><use xlink:href="#aKRHprSb4" opacity="1" fill="#000000" fill-opacity="1"></use></g><g><g><use xlink:href="#d9sNWeV5EZ" opacity="1" fill-opacity="0" stroke="#000202" stroke-width="27" stroke-opacity="1"></use></g></g><g><use xlink:href="#a4AkHG6QN" opacity="1" fill="#000000" fill-opacity="1"></use><g><use xlink:href="#a4AkHG6QN" opacity="1" fill-opacity="0" stroke="#000202" stroke-width="22" stroke-opacity="1"></use></g></g></g></g></svg>